<?xml version="1.0" encoding="UTF-8" standalone="no"?>
<svg
   xmlns:dc="http://purl.org/dc/elements/1.1/"
   xmlns:cc="http://creativecommons.org/ns#"
   xmlns:rdf="http://www.w3.org/1999/02/22-rdf-syntax-ns#"
   xmlns:svg="http://www.w3.org/2000/svg"
   xmlns="http://www.w3.org/2000/svg"
   xmlns:sodipodi="http://sodipodi.sourceforge.net/DTD/sodipodi-0.dtd"
   xmlns:inkscape="http://www.inkscape.org/namespaces/inkscape"
   inkscape:version="1.0 (4035a4fb49, 2020-05-01)"
   sodipodi:docname="dice.svg"
   id="svg8"
   version="1.1"
   viewBox="0 0 512 512"
   style="height: 512px; width: 512px;">
  <metadata
     id="metadata14">
    <rdf:RDF>
      <cc:Work
         rdf:about="">
        <dc:format>image/svg+xml</dc:format>
        <dc:type
           rdf:resource="http://purl.org/dc/dcmitype/StillImage" />
        <dc:title></dc:title>
      </cc:Work>
    </rdf:RDF>
  </metadata>
  <defs
     id="defs12">
    <filter
       height="1"
       y="-1.0598718e-09"
       width="1"
       x="-1.2087951e-09"
       id="filter860"
       style="color-interpolation-filters:sRGB"
       inkscape:collect="always">
      <feGaussianBlur
         id="feGaussianBlur862"
         stdDeviation="1.0652859e-07"
         inkscape:collect="always" />
    </filter>
    <filter
       height="1"
       y="-1.0579421e-09"
       width="1"
       x="-1.2199036e-09"
       id="filter864"
       style="color-interpolation-filters:sRGB"
       inkscape:collect="always">
      <feGaussianBlur
         id="feGaussianBlur866"
         stdDeviation="1.0652859e-07"
         inkscape:collect="always" />
    </filter>
  </defs>
  <sodipodi:namedview
     inkscape:current-layer="g1858"
     inkscape:window-maximized="0"
     inkscape:window-y="158"
     inkscape:window-x="1957"
     inkscape:cy="260.44221"
     inkscape:cx="140.51273"
     inkscape:zoom="1.3604009"
     showgrid="false"
     id="namedview10"
     inkscape:window-height="831"
     inkscape:window-width="1600"
     inkscape:pageshadow="2"
     inkscape:pageopacity="0"
     guidetolerance="10"
     gridtolerance="10"
     objecttolerance="10"
     borderopacity="1"
     bordercolor="#666666"
     pagecolor="#ffffff" />
  <g
     style="display:none"
     inkscape:label="Layer 3"
     id="layer3"
     inkscape:groupmode="layer">
    <path
       id="path2"
       fill-opacity="1"
       fill="#000000"
       d="M 0,0 H 512 V 512 H 0 Z" />
  </g>
  <g
     style="display:none"
     inkscape:label="Layer 1"
     id="layer1"
     inkscape:groupmode="layer">
    <g
       id="g6"
       class="">
      <path
         id="path4"
         fill-opacity="1"
         fill="#ffffff"
         d="m 375.483,251.243 -109.98,51.138 0.213,183.381 211.294,-219.416 -86.993,-21.81 z m -12.736,108.626 -5.947,14.699 -48.604,-8.955 5.007,-12.832 a 141.306,141.306 0 0 0 13.51,-11.358 167.184,167.184 0 0 0 16.566,-17.517 170.478,170.478 0 0 0 12.606,-17.958 115.607,115.607 0 0 0 9.514,-17.97 l 14.068,2.51 q -9.37,22.334 -30.361,44.43 -13.296,13.64 -20.645,18.636 z M 121.603,244.334 36.893,266.097 246.474,486 V 302.38 L 136.528,251.243 Z m 19.147,50.852 a 28.72,28.72 0 0 1 24.273,6.802 53.052,53.052 0 0 1 11.226,14.188 l -13.081,2.676 a 28.542,28.542 0 0 0 -5.388,-7.374 q -5.185,-4.876 -11.262,-3.853 l -0.487,0.095 a 6.458,6.458 0 0 0 -5.162,4.448 c -0.856,2.378 -0.238,5.554 1.796,9.371 q 4.08,7.6 10.81,9.027 a 23.785,23.785 0 0 0 8.563,-0.203 l 1.867,-0.344 5.791,10.822 q -6.398,1.427 -8.23,3.282 -3.21,3.14 0.429,9.93 a 17.042,17.042 0 0 0 6.089,6.696 10.406,10.406 0 0 0 7.385,1.534 l 0.416,-0.083 q 4.757,-0.964 5.079,-4.757 c 0.261,-2.57 -0.655,-5.744 -2.748,-9.514 l 12.38,-2.545 a 49.247,49.247 0 0 1 4.103,11.226 19.956,19.956 0 0 1 -0.642,9.383 11.702,11.702 0 0 1 -3.96,5.411 19.575,19.575 0 0 1 -8.027,3.235 l -1.19,0.214 a 27.971,27.971 0 0 1 -17.494,-2.7 32.193,32.193 0 0 1 -14.128,-14.092 q -3.627,-6.79 -2.604,-12.19 a 8.396,8.396 0 0 1 2.521,-4.947 h -0.071 q -1.844,0.31 -7.04,-2.497 a 32.11,32.11 0 0 1 -12.916,-13.593 q -5.245,-9.764 -3.282,-18.398 1.962,-8.634 13.676,-11 z M 27.19,248.865 135.97,132.556 a 7.135,7.135 0 0 1 1.427,0 h 0.154 q 3.14,0.345 2.842,3.71 a 19.36,19.36 0 0 1 -3.294,8.1 39.376,39.376 0 0 1 -9.728,10.405 q -3.912,2.938 -15.044,9.514 -12.796,7.505 -19.55,14.77 a 92.535,92.535 0 0 0 -11.513,14.486 l 32.907,3.758 8.182,-12.963 -20.967,-2.378 a 36.415,36.415 0 0 1 4.757,-3.83 q 2.379,-1.605 8.444,-5.125 l 6.422,-3.747 a 92.975,92.975 0 0 0 12.903,-8.776 61.472,61.472 0 0 0 12.51,-14.414 q 6.84,-10.846 6.494,-17.957 c -0.19,-3.949 -2.105,-6.434 -5.684,-7.505 l 79.798,-85.161 -102.097,179.576 -5.708,10.06 z m 367.238,-71.974 q -3.817,-5.458 -3.758,-8.515 c 0,-2.033 1.19,-3.199 3.568,-3.448 h 0.57 a 11.892,11.892 0 0 1 6.91,2.247 29.85,29.85 0 0 1 7.837,8.051 q 3.687,5.28 3.71,8.397 c 0,2.093 -1.188,3.258 -3.496,3.567 h -0.594 a 11.75,11.75 0 0 1 -6.957,-2.378 29.79,29.79 0 0 1 -7.79,-7.885 z m -109.41,-141.52 83.948,89.634 h -1.189 c -0.38,0 -0.975,0 -1.463,0.107 q -7.825,0.892 -8.324,6.862 -0.5,5.97 5.03,13.747 a 53.778,53.778 0 0 0 6.375,7.374 37.901,37.901 0 0 0 10.144,6.897 q -2.117,2.89 -0.702,7.98 a 37.283,37.283 0 0 0 5.613,11.096 55.122,55.122 0 0 0 15.223,14.806 q 8.098,5.268 16.066,4.935 0.81,0 1.618,-0.13 8.776,-0.988 9.228,-7.873 a 16.114,16.114 0 0 0 -0.463,-4.853 l 58.689,62.686 -91.572,-22.941 -6.1,-10.703 z m 98.22,104.927 2.45,2.617 c 0.451,0.57 0.903,1.189 1.355,1.784 1.808,2.592 2.723,4.757 2.723,6.529 0,1.771 -1.034,2.782 -3.127,3.02 h -0.512 a 10.346,10.346 0 0 1 -6.077,-1.95 22.596,22.596 0 0 1 -6.184,-6.137 c -1.974,-2.83 -2.937,-5.102 -2.878,-6.814 0.06,-1.713 1.118,-2.7 3.187,-2.937 h 0.524 a 10.263,10.263 0 0 1 6.005,1.879 19.147,19.147 0 0 1 2.533,2.01 z M 255.987,26 137.456,231.026 l 118.532,55.05 118.604,-55.05 z m -1.19,208.463 q -17.529,0 -24.58,-12.273 -7.053,-12.273 -7.053,-34.988 0,-22.714 7.052,-35.047 7.052,-12.332 24.582,-12.344 17.53,0 24.582,12.332 7.052,12.333 7.052,35.047 0,22.715 -7.052,34.988 -7.053,12.273 -24.582,12.285 z m 10.538,-71.807 q 2.497,7.968 2.497,24.546 0,15.817 -2.497,24.201 -2.498,8.384 -10.537,8.325 -8.04,0 -10.632,-8.325 -2.593,-8.324 -2.593,-24.2 0,-16.579 2.593,-24.547 2.593,-7.968 10.632,-7.968 8.015,-0.012 10.513,7.956 z" />
    </g>
  </g>
  <g
     style="display:none;opacity:1"
     inkscape:label="Layer 2"
     id="layer2"
     inkscape:groupmode="layer">
    <path
       id="path839"
       d="M 227.03,35.443 119.225,225.079 27.19,248.865 Z"
       style="fill:#818181;fill-opacity:1;stroke:#000000;stroke-width:1px;stroke-linecap:butt;stroke-linejoin:miter;stroke-opacity:1" />
    <path
       id="path846"
       d="M 285.018,35.371 484.811,248.639 393.239,225.698 Z"
       style="fill:#818181;fill-opacity:1;stroke:#000000;stroke-width:1px;stroke-linecap:butt;stroke-linejoin:miter;stroke-opacity:1" />
    <path
       id="path848"
       d="m 36.893,266.097 84.71,-21.763 124.871,58.046 V 486 Z"
       style="fill:#585858;fill-opacity:1;stroke:#000000;stroke-width:1px;stroke-linecap:butt;stroke-linejoin:miter;stroke-opacity:1;filter:url(#filter864)" />
    <path
       sodipodi:nodetypes="ccccc"
       style="fill:#585858;fill-opacity:1;stroke:#000000;stroke-width:1px;stroke-linecap:butt;stroke-linejoin:miter;stroke-opacity:1;filter:url(#filter860)"
       d="m 477.01,266.346 -86.993,-21.81 -124.514,57.845 0.213,183.381 z"
       id="path850" />
    <path
       id="path868"
       d="m 255.987,26 -118.531,205.026 118.532,55.05 118.604,-55.05 z"
       style="fill:#c2c2c2;fill-opacity:1;stroke:#000000;stroke-width:1px;stroke-linecap:butt;stroke-linejoin:miter;stroke-opacity:1" />
  </g>
  <g
     style="display:inline;opacity:1"
     inkscape:label="outline"
     id="layer4"
     inkscape:groupmode="layer">
    <path
       inkscape:export-ydpi="96"
       inkscape:export-xdpi="96"
       inkscape:export-filename="C:\Users\thenu\dev\oath-of-iron\assets\img\dice\d10-0.png"
       sodipodi:nodetypes="ccscscscc"
       id="path885"
       d="M 36.743529,246.36235 245.76,24.696471 c 0,0 10.24,-12.04706 22.28706,0.602353 7.34945,7.716925 204.8,221.063526 204.8,221.063526 0,0 12.04706,6.62589 -1.80706,20.48 -9.05535,9.05535 -209.61882,217.44941 -209.61882,217.44941 0,0 -8.43294,9.0353 -16.26353,-0.60235 -7.83059,-9.63765 -210.221179,-221.66588 -210.221179,-221.66588 0,0 -8.432942,-6.62588 1.807058,-15.66118 z"
       style="fill:#000000;fill-opacity:1;stroke:#000000;stroke-width:1px;stroke-linecap:butt;stroke-linejoin:miter;stroke-opacity:1" />
  </g>
  <g
     inkscape:groupmode="layer"
     id="g882"
     inkscape:label="Layer 2 copy"
     style="display:inline;opacity:1">
    <path
       inkscape:export-ydpi="96"
       inkscape:export-xdpi="96"
       inkscape:export-filename="C:\Users\thenu\dev\oath-of-iron\assets\img\dice\d10-0.png"
       style="fill:#818181;fill-opacity:1;stroke:#000000;stroke-width:1px;stroke-linecap:butt;stroke-linejoin:miter;stroke-opacity:1"
       d="M 239.03,39.443 131.225,229.079 39.19,252.865 Z"
       id="path872" />
    <path
       inkscape:export-ydpi="96"
       inkscape:export-xdpi="96"
       inkscape:export-filename="C:\Users\thenu\dev\oath-of-iron\assets\img\dice\d10-0.png"
       style="fill:#818181;fill-opacity:1;stroke:#000000;stroke-width:1px;stroke-linecap:butt;stroke-linejoin:miter;stroke-opacity:1"
       d="M 271.018,39.371 470.811,252.639 379.239,229.698 Z"
       id="path874" />
    <path
       inkscape:export-ydpi="96"
       inkscape:export-xdpi="96"
       inkscape:export-filename="C:\Users\thenu\dev\oath-of-iron\assets\img\dice\d10-0.png"
       style="fill:#585858;fill-opacity:1;stroke:#000000;stroke-width:1px;stroke-linecap:butt;stroke-linejoin:miter;stroke-opacity:1;filter:url(#filter864)"
       d="m 40.893,258.097 84.71,-21.763 124.871,58.046 V 478 Z"
       id="path876" />
    <path
       inkscape:export-ydpi="96"
       inkscape:export-xdpi="96"
       inkscape:export-filename="C:\Users\thenu\dev\oath-of-iron\assets\img\dice\d10-0.png"
       id="path878"
       d="m 471.01,258.346 -86.993,-21.81 -124.514,57.845 0.213,183.381 z"
       style="fill:#585858;fill-opacity:1;stroke:#000000;stroke-width:1px;stroke-linecap:butt;stroke-linejoin:miter;stroke-opacity:1;filter:url(#filter860)"
       sodipodi:nodetypes="ccccc" />
    <path
       inkscape:export-ydpi="96"
       inkscape:export-xdpi="96"
       inkscape:export-filename="C:\Users\thenu\dev\oath-of-iron\assets\img\dice\d10-0.png"
       style="fill:#c2c2c2;fill-opacity:1;stroke:#000000;stroke-width:1px;stroke-linecap:butt;stroke-linejoin:miter;stroke-opacity:1"
       d="m 255.987,26 -118.531,205.026 118.532,55.05 118.604,-55.05 z"
       id="path880" />
  </g>
  <g
     style="display:none"
     inkscape:label="d6 outline"
     id="layer7"
     inkscape:groupmode="layer">
    <path
       sodipodi:nodetypes="cscscscscscsc"
       id="path1217"
       d="m 64.54785,169.47519 c 0,0 2,-6.21113 7.323828,-11.53496 5.323828,-5.32383 89.174122,-56.7875 89.174122,-56.7875 0,0 4.43652,-3.105564 13.30957,-3.105564 8.87304,0 233.80478,-0.443653 233.80478,-0.443653 0,0 7.98574,-0.443652 7.98574,10.647657 0,11.09131 0.44365,237.79765 0.44365,237.79765 0,0 -1.33096,5.76748 -10.64765,11.97861 -7.57415,5.04943 -80.30108,50.79463 -80.30108,50.79463 0,0 -5.32382,4.88017 -17.74609,5.32383 -9.35289,0.33404 -236.023042,0.44365 -236.023042,0.44365 0,0 -5.985742,1.55635 -6.429394,-9.53496 C 64.998631,393.96327 64.54785,169.47519 64.54785,169.47519 Z"
       style="fill:#000000;fill-opacity:1;stroke:#000000;stroke-width:1px;stroke-linecap:butt;stroke-linejoin:miter;stroke-opacity:1" />
  </g>
  <g
     style="display:none;opacity:1;mix-blend-mode:normal"
     inkscape:label="d6 base"
     id="layer6"
     inkscape:groupmode="layer">
    <rect
       y="166.02861"
       x="71.155136"
       height="243.72673"
       width="243.72673"
       id="rect897"
       style="opacity:1;fill:#c2c2c2;fill-opacity:1;stroke:#000000;stroke-width:0.952441" />
    <path
       sodipodi:nodetypes="ccccc"
       d="m 166.94065,103.70862 h 241.72674 l -91.78552,58.31999 H 75.155132 Z"
       style="opacity:1;fill:#818181;fill-opacity:1;stroke:#000000;stroke-width:0.952441"
       id="rect1210" />
    <path
       sodipodi:nodetypes="ccccc"
       d="m 318.88187,166.02861 91.78552,-58.31999 v 241.72673 l -91.78552,58.31999 z"
       style="opacity:1;fill:#585858;fill-opacity:1;stroke:#000000;stroke-width:0.952441"
       id="rect1213" />
  </g>
  <g
     style="display:none"
     inkscape:label="Numbers"
     id="layer5"
     inkscape:groupmode="layer">
    <text
       inkscape:export-ydpi="96"
       inkscape:export-xdpi="96"
       inkscape:export-filename="C:\Users\thenu\dev\oath-of-iron\assets\img\dice\d10-1.png"
       id="text889"
       y="226.91821"
       x="211.35338"
       style="font-style:normal;font-weight:normal;font-size:157.791px;line-height:1.25;font-family:sans-serif;display:inline;opacity:1;fill:#000000;fill-opacity:1;stroke:none;stroke-width:3.94476"
       xml:space="preserve"><tspan
         style="font-style:normal;font-variant:normal;font-weight:normal;font-stretch:normal;font-family:Arial;-inkscape-font-specification:Arial;stroke-width:3.94476"
         y="226.91821"
         x="211.35338"
         id="tspan887"
         sodipodi:role="line">9</tspan></text>
  </g>
  <g
     inkscape:groupmode="layer"
     id="g1858"
     inkscape:label="d100 numbers"
     style="display:inline">
    <text
       xml:space="preserve"
       style="font-style:normal;font-weight:normal;font-size:124.034px;line-height:1.25;font-family:sans-serif;display:inline;opacity:1;fill:#000000;fill-opacity:1;stroke:none;stroke-width:3.10083"
       x="189.96704"
       y="240.56168"
       id="text1856"
       inkscape:export-filename="C:\Users\thenu\dev\oath-of-iron\assets\img\dice\d10-1.png"
       inkscape:export-xdpi="96"
       inkscape:export-ydpi="96"><tspan
         sodipodi:role="line"
         id="tspan1854"
         x="189.96704"
         y="240.56168"
         style="font-style:normal;font-variant:normal;font-weight:normal;font-stretch:normal;font-family:Arial;-inkscape-font-specification:Arial;stroke-width:3.10083">90</tspan></text>
  </g>
  <g
     inkscape:groupmode="layer"
     id="g1223"
     inkscape:label="Numbers copy"
     style="display:none">
    <text
       xml:space="preserve"
       style="font-style:normal;font-weight:normal;font-size:157.791px;line-height:1.25;font-family:sans-serif;display:inline;opacity:1;fill:#000000;fill-opacity:1;stroke:none;stroke-width:3.94476"
       x="149.35338"
       y="344.91821"
       id="text1221"
       inkscape:export-filename="C:\Users\thenu\dev\oath-of-iron\assets\img\dice\d10-1.png"
       inkscape:export-xdpi="96"
       inkscape:export-ydpi="96"><tspan
         sodipodi:role="line"
         id="tspan1219"
         x="149.35338"
         y="344.91821"
         style="font-style:normal;font-variant:normal;font-weight:normal;font-stretch:normal;font-family:Arial;-inkscape-font-specification:Arial;stroke-width:3.94476">6</tspan></text>
  </g>
  <g
     style="display:none"
     inkscape:label="Numbers copy copy"
     id="g1229"
     inkscape:groupmode="layer">
    <text
       inkscape:export-ydpi="96"
       inkscape:export-xdpi="96"
       inkscape:export-filename="C:\Users\thenu\dev\oath-of-iron\assets\img\dice\d10-1.png"
       id="text1227"
       y="317.72034"
       x="113.33458"
       style="font-style:normal;font-weight:normal;font-size:157.791px;line-height:1.25;font-family:sans-serif;display:inline;opacity:1;fill:#000000;fill-opacity:1;stroke:none;stroke-width:3.94476"
       xml:space="preserve"><tspan
         style="font-style:normal;font-variant:normal;font-weight:normal;font-stretch:normal;font-family:Arial;-inkscape-font-specification:Arial;stroke-width:3.94476"
         y="317.72034"
         x="113.33458"
         id="tspan1225"
         sodipodi:role="line">=  </tspan></text>
    <path
       d="m 335.89453,172.54297 c -1.90719,0.0155 -3.82917,0.0969 -5.64672,0.23151 -5.56029,0.40256 -11.22652,1.37658 -16.59418,2.8372 -2.55216,0.69591 -5.27715,1.56844 -7.76864,2.50894 -3.79092,1.41643 -7.53679,3.1326 -11.05296,5.04149 -4.84056,2.62717 -9.57267,5.80255 -13.8713,9.348 -5.66914,4.64944 -10.86759,10.17302 -15.16971,16.0895 -5.7982,7.9592 -10.23935,16.90122 -13.0689,26.29803 -0.89832,2.97057 -1.65654,6.10308 -2.22993,9.13166 -0.5217,2.80982 -0.91469,5.62034 -1.16797,8.50195 -0.15732,1.7621 -0.25769,3.59682 -0.31055,5.44336 -0.0351,1.54904 -0.038,3.39813 0.0149,4.96815 0.17518,5.57256 0.87548,11.1003 2.1081,16.57482 0.93182,4.13339 2.20713,8.33967 3.74231,12.29946 1.5961,4.15163 3.58779,8.29559 5.72363,12.01295 2.09612,3.67251 4.57326,7.31848 7.11414,10.55282 6.39739,8.16126 14.34936,15.22183 23.14062,20.59571 7.08555,4.34515 14.79302,7.6726 22.81446,9.8496 2.61959,0.7157 5.44288,1.34016 8.18492,1.80959 2.59029,0.44864 5.51923,0.81134 8.19633,1.01078 1.42048,0.10889 2.96533,0.18322 4.34335,0.22065 3.37038,0.0864 6.73591,-0.0212 10.03711,-0.31641 4.89467,-0.42945 9.92712,-1.31907 14.55079,-2.54296 7.07637,-1.86355 13.86744,-4.592 20.2826,-8.15816 3.74517,-2.0741 7.55425,-4.57962 10.94591,-7.20513 13.11812,-10.07551 23.33489,-24.05783 28.9291,-39.67528 1.23003,-3.39765 2.27159,-6.96729 3.0709,-10.5337 0.48212,-2.1589 0.85076,-4.13337 1.16305,-6.22002 0.42306,-2.81082 0.70892,-5.70031 0.84867,-8.40107 0.12428,-2.26446 0.14721,-4.67174 0.0918,-6.92188 -0.10019,-3.59064 -0.40961,-7.13104 -0.92907,-10.60002 -0.40417,-2.70367 -0.90989,-5.27195 -1.5514,-7.90389 -0.83409,-3.43333 -1.95954,-7.04291 -3.24024,-10.40429 -3.59135,-9.44574 -8.89588,-18.32595 -15.45312,-25.93945 -6.93929,-8.07507 -15.36542,-14.86654 -24.73047,-19.93165 -3.1557,-1.7116 -6.56812,-3.29518 -9.97423,-4.61784 -3.33183,-1.29562 -6.76715,-2.39388 -10.2076,-3.26557 -3.36213,-0.84925 -6.58552,-1.46834 -10.00958,-1.92909 -1.5095,-0.19775 -3.20979,-0.38021 -4.74037,-0.49934 -2.5124,-0.19171 -4.97431,-0.28415 -7.5858,-0.26042 z m 0.77344,13.54492 c 15.83692,-0.0352 31.62425,5.2015 44.30007,14.69429 12.64298,9.38035 22.13573,22.90595 26.65696,37.9854 4.64452,15.23776 4.16766,31.97237 -1.34173,46.92027 -5.46501,15.05075 -15.98054,28.19971 -29.46058,36.84163 -13.638,8.83705 -30.24304,12.96979 -46.43218,11.55181 -15.722,-1.2973 -30.95138,-7.80732 -42.75965,-18.26684 -11.7145,-10.28985 -20.01917,-24.37333 -23.34986,-39.60502 -3.44829,-15.44634 -1.74696,-31.98169 4.78013,-46.40043 6.51978,-14.59072 17.92081,-26.9265 31.94745,-34.58222 10.87142,-5.9775 23.2524,-9.15217 35.65939,-9.13889 z"
       style="opacity:1;fill:#000000;fill-opacity:1;stroke:#000000;stroke-width:0.952441"
       id="path1231" />
    <text
       xml:space="preserve"
       style="font-style:normal;font-weight:normal;font-size:132.65px;line-height:1.25;font-family:sans-serif;display:inline;opacity:1;fill:#000000;fill-opacity:1;stroke:none;stroke-width:3.31624"
       x="264.71063"
       y="308.55707"
       id="text1243"
       inkscape:export-filename="C:\Users\thenu\dev\oath-of-iron\assets\img\dice\d10-1.png"
       inkscape:export-xdpi="96"
       inkscape:export-ydpi="96"><tspan
         sodipodi:role="line"
         id="tspan1241"
         x="264.71063"
         y="308.55707"
         style="font-style:normal;font-variant:normal;font-weight:normal;font-stretch:normal;font-family:Arial;-inkscape-font-specification:Arial;stroke-width:3.31624">11</tspan></text>
  </g>
</svg>
